<svg xmlns="http://www.w3.org/2000/svg" width="150" height="150" viewBox="0 0 150 150"><rect width="100%" height="100%" fill="#008000"/><path fill="#FFFFFF" d="M76.43 93.78h13.91q1.5 0 2.38.85.88.84.88 2.23v5.55H56.4v-3.07q0-.94.39-1.97.4-1.04 1.26-1.86l16.46-16.5q2.06-2.1 3.7-4.01 1.63-1.91 2.72-3.79 1.08-1.87 1.66-3.81.59-1.93.59-4.06 0-1.95-.57-3.44-.56-1.48-1.59-2.49-1.03-1.01-2.48-1.52-1.44-.5-3.24-.5-1.65 0-3.06.46-1.4.47-2.49 1.32-1.09.84-1.84 1.97-.75 1.12-1.12 2.47-.64 1.73-1.65 2.29-1.02.56-2.93.26l-4.87-.86q.56-3.9 2.17-6.85 1.61-2.94 4.03-4.91 2.42-1.97 5.55-2.96 3.14-.99 6.73-.99 3.75 0 6.87 1.1 3.11 1.11 5.32 3.13 2.21 2.03 3.45 4.88 1.24 2.85 1.24 6.33 0 3-.88 5.56-.88 2.55-2.36 4.87-1.49 2.32-3.47 4.5-1.99 2.18-4.17 4.43L69.6 94.87q1.76-.52 3.51-.8 1.74-.29 3.32-.29Z"/></svg>